<svg xmlns="http://www.w3.org/2000/svg" viewBox="0 0 99.1 44"><defs><style>.cls-1,.cls-2{fill:#231f20;stroke:#f7941e;stroke-miterlimit:10;}.cls-1{stroke-width:0.75px;}.cls-2{font-size:21px;stroke-width:0.5px;font-family:Harrington, Harrington;}</style></defs><title>logoEmix</title><g id="OBJECTS"><path class="cls-1" d="M27.74,37.88a44.68,44.68,0,0,1-5.83-2.63A5,5,0,0,0,22,34.16a7.79,7.79,0,0,0-.4-2.52.47.47,0,0,0-.68-.28,2.56,2.56,0,0,0-1.3,2.51,34.29,34.29,0,0,1-3-2.15.34.34,0,0,0,.09-.43,7,7,0,0,0-.52-.64l.18-.12a2.23,2.23,0,0,0,.94-1.12,1.41,1.41,0,0,0-1.28-2,1.84,1.84,0,0,0-1.59,1.87,2.14,2.14,0,0,0,.14.65Q13.23,28.69,12,27.29a3.29,3.29,0,0,0,.37-3.93.44.44,0,0,0-.68-.09,3.65,3.65,0,0,0-1.06,2.31c-1-1.37-1.87-2.84-3-4.11l0,0a2.91,2.91,0,0,0-.15-2.87A1.63,1.63,0,0,0,5,18.29c-1.71,1.72.58,3.9,2.36,4.08a18,18,0,0,0,3.44,5.53h0a.38.38,0,0,0-.05-.08C10,27,9,26.1,7.83,26.32A1.89,1.89,0,0,0,6.28,28.2c.1,1,1.12,1.38,2,1.32a8.22,8.22,0,0,0,3.28-.78c.58.62,1.18,1.21,1.78,1.78a2.46,2.46,0,0,0-.59,0A1.85,1.85,0,0,0,11,32.62a1.57,1.57,0,0,0,2.1,1.27c.85-.29,1.38-1,2.23-1.27l.2.19a.3.3,0,0,0,.47,0,35.86,35.86,0,0,0,3.27,2.32,3.63,3.63,0,0,0-3.39,1.29.53.53,0,0,0,.23.87c1.43.45,3.76.13,4.55-1.33a29.82,29.82,0,0,0,6.89,2.86A.46.46,0,0,0,27.74,37.88ZM5.62,19.42c.18-.62.78-.53,1,0A2,2,0,0,1,6.52,21C5.92,20.62,5.4,20.18,5.62,19.42Zm2.67,9c-.36,0-.94.09-.94-.52,0-.33.59-.62.83-.64a2.8,2.8,0,0,1,1.76.79A8.94,8.94,0,0,1,8.29,28.45Zm3.09-2.15a2.8,2.8,0,0,1,.47-1.9A2.24,2.24,0,0,1,11.38,26.3Zm1.5,6.34c-.91.49-1-.84-.09-1.08a1.91,1.91,0,0,1,1.38.24C13.71,32.06,13.24,32.45,12.89,32.64Zm3.06-3a2,2,0,0,1-.38.2c-.3-.52-.37-1,.29-1.36.29-.15.53-.06.58.29A1,1,0,0,1,15.94,29.63Zm2.54,6.55a3.36,3.36,0,0,1-1.09.19,3.76,3.76,0,0,1,1.81-.58A3.11,3.11,0,0,1,18.48,36.19Zm2.45-1.88c0,.12,0,.24,0,.35h0a1.74,1.74,0,0,1,0-2.06A7.09,7.09,0,0,1,20.93,34.31Z"/><path class="cls-1" d="M69.49,38.76a29.82,29.82,0,0,0,6.89-2.86c.79,1.46,3.12,1.78,4.55,1.33a.53.53,0,0,0,.23-.87,3.63,3.63,0,0,0-3.39-1.29A35.88,35.88,0,0,0,81,32.76a.3.3,0,0,0,.47,0l.2-.19c.85.24,1.37,1,2.23,1.27A1.57,1.57,0,0,0,86,32.62a1.85,1.85,0,0,0-1.8-2.13,2.46,2.46,0,0,0-.59,0c.6-.56,1.2-1.15,1.78-1.78a8.22,8.22,0,0,0,3.28.78c.89.06,1.92-.3,2-1.32a1.89,1.89,0,0,0-1.55-1.88c-1.2-.22-2.15.7-2.9,1.5a.39.39,0,0,0-.05.08h0a18,18,0,0,0,3.44-5.53C91.4,22.19,93.69,20,92,18.29a1.63,1.63,0,0,0-2.46.29,2.91,2.91,0,0,0-.15,2.87l0,0c-1.11,1.27-2,2.74-3,4.11a3.65,3.65,0,0,0-1.06-2.31.44.44,0,0,0-.68.09A3.29,3.29,0,0,0,85,27.29Q83.76,28.69,82.4,30a2.13,2.13,0,0,0,.14-.65A1.84,1.84,0,0,0,81,27.44a1.41,1.41,0,0,0-1.28,2,2.23,2.23,0,0,0,.94,1.12l.18.12a7,7,0,0,0-.52.64.34.34,0,0,0,.09.43,34.29,34.29,0,0,1-3,2.15,2.56,2.56,0,0,0-1.3-2.51.47.47,0,0,0-.68.28,7.79,7.79,0,0,0-.4,2.52,5,5,0,0,0,.09,1.08,44.67,44.67,0,0,1-5.83,2.63A.46.46,0,0,0,69.49,38.76ZM90.46,21a2,2,0,0,1-.14-1.55c.26-.54.85-.63,1,0S91.07,20.62,90.46,21ZM87,28.09a2.8,2.8,0,0,1,1.76-.79c.24,0,.83.31.83.64,0,.6-.58.54-.94.52A8.94,8.94,0,0,1,87,28.09Zm-1.9-3.69a2.8,2.8,0,0,1,.47,1.9A2.24,2.24,0,0,1,85.14,24.4ZM82.8,31.8a1.91,1.91,0,0,1,1.38-.24c.91.23.83,1.57-.09,1.08C83.74,32.45,83.28,32.06,82.8,31.8Zm-2.25-3c0-.35.29-.44.58-.29.66.34.59.85.29,1.36a2,2,0,0,1-.38-.2A1,1,0,0,1,80.55,28.76Zm-2.77,7a3.76,3.76,0,0,1,1.81.58,3.36,3.36,0,0,1-1.09-.19A3.11,3.11,0,0,1,77.78,35.8Zm-1.65-3.21a1.74,1.74,0,0,1,0,2.06h0c0-.12,0-.23,0-.35A7.08,7.08,0,0,1,76.13,32.59Z"/><text class="cls-2" transform="translate(8.22 17.84)">EasyMix</text></g></svg>