<svg xmlns="http://www.w3.org/2000/svg" viewBox="0 0 614.98 550.13"><defs><style>.cls-1,.cls-2{fill:#231f20;stroke:#f7941e;stroke-miterlimit:10;stroke-width:5px;}.cls-2{font-size:144.53px;font-family:Harrington, Harrington;}</style></defs><title>logoEm2</title><g id="OBJECTS"><path class="cls-1" d="M359.76,320.48c-6.83,4.7-15.08,4.66-21.47,8.77-6,3.87-14,25-7.54,30,2.59,2,6,2.59,9.21,3.12l-33.56,1.46c3.44-1.59,7-3.33,9.19-6.46,8.75-12.81-15.88-28.33-24.14-33.28-13-7.82-23.56-19.11-34.87-29.12-17.56-15.55-29.31-38-30.24-61.64-.64-16.32,3.32-32.43,7.26-48.29,3.61-14.54,8.28-29.82,4.59-44.87A14.63,14.63,0,0,1,228,146a13.5,13.5,0,0,1,4.71-17l-18.14-.78a34.54,34.54,0,0,0,14.17-10c-2.94-3.58-5.76-7.52-6.46-12.1s1.38-9.89,5.73-11.46,10,2.66,8.7,7.08c0-3.46.07-7,1.5-10.2s4.64-5.78,8.08-5.4,6.09,4.79,4,7.58a4.87,4.87,0,0,1,6-4l-.76,7,8.24-2.51c-4.48,5.38-4.27,13.39-1.81,19.95s6.82,12.19,10.22,18.31c12,21.67,12,49.15,27,68.87,4.31,5.67,10,10.6,16.85,12.53s15,.32,19.54-5.15c7.54-9,2.6-22.76,5.12-34.25,2.76-12.62,14.46-21.43,26.56-26,14.92-5.58,32.1-6.23,46.54.5s25.43,21.49,25.52,37.42a52.36,52.36,0,0,0-30.08-10.92A51.38,51.38,0,0,1,435.5,208l-32.67-6.83a34.1,34.1,0,0,1,23.06,25.27A65.23,65.23,0,0,0,398,216.66c-.56,19.3-1.15,38.81-6.27,57.43C386.65,292.52,375.63,309.55,359.76,320.48Z"/><path class="cls-1" d="M244,392.49a307.52,307.52,0,0,1-40.11-18.13,34.37,34.37,0,0,0,.63-7.44,53.64,53.64,0,0,0-2.78-17.35,3.26,3.26,0,0,0-4.71-1.92c-6.17,2.89-9.56,10.49-9,17.29a236,236,0,0,1-20.63-14.77,2.32,2.32,0,0,0,.65-2.93,47.83,47.83,0,0,0-3.6-4.43l1.24-.8a15.35,15.35,0,0,0,6.49-7.73c2.14-6.28-1.37-14.19-8.81-13.63-6.25.47-11.19,6.81-10.94,12.89a14.7,14.7,0,0,0,1,4.46q-9.29-8.78-17.73-18.42c6.89-6.74,7.7-19.2,2.58-27.06a3,3,0,0,0-4.7-.61,25.11,25.11,0,0,0-7.33,15.9c-6.84-9.46-12.88-19.55-20.52-28.28a1.69,1.69,0,0,0-.24-.19c2.37-6.57,3.55-13.82-1-19.75-4.11-5.33-11.89-7.08-16.95-2-11.75,11.86,4,26.84,16.26,28.1,4.77,13.34,13.51,26.28,23.69,38l-.2,0a2.65,2.65,0,0,0-.37-.57c-5.13-5.5-11.71-11.81-20-10.32-5.8,1-11.28,6.78-10.7,12.92.66,7,7.74,9.53,13.88,9.11,6.53-.45,16.26-1.7,22.54-5.38,4,4.28,8.14,8.35,12.28,12.23a16.9,16.9,0,0,0-4.06-.17c-7.64.66-13.78,6.66-12.42,14.63,1.2,7,7.67,11,14.45,8.75,5.87-2,9.46-7.12,15.32-8.75.47.43.94.87,1.37,1.28a2.06,2.06,0,0,0,3.21-.32,246.82,246.82,0,0,0,22.49,16c-8.76-1.48-17.35,1.89-23.33,8.89a3.64,3.64,0,0,0,1.58,6c9.87,3.07,25.86.89,31.32-9.17a205.22,205.22,0,0,0,47.39,19.68C246.27,399.65,247.71,393.89,244,392.49Zm-152.22-127c1.26-4.25,5.39-3.63,7.14.09,1.57,3.31.42,7.16-.93,10.64C93.79,273.74,90.2,270.66,91.74,265.48Zm18.39,62.12c-2.48.18-6.48.6-6.45-3.55,0-2.27,4.07-4.25,5.74-4.41,4.19-.4,8.67,2.72,12.13,5.44C117.73,326.13,113.91,327.34,110.14,327.61Zm21.27-14.78a19.27,19.27,0,0,1,3.21-13.11C135.73,304.55,134.33,309,131.41,312.83Zm10.35,43.63c-6.28,3.37-6.87-5.8-.59-7.42,3.25-.84,6.49,0,9.5,1.63C147.4,352.44,144.21,355.14,141.76,356.46Zm21-20.74a13.69,13.69,0,0,1-2.62,1.37c-2.07-3.55-2.58-7.08,2-9.39,2-1,3.67-.38,4,2S164.68,334.36,162.79,335.73Zm17.48,45.11a23.11,23.11,0,0,1-7.52,1.34,25.85,25.85,0,0,1,12.47-4A21.39,21.39,0,0,1,180.27,380.83Zm16.84-12.93c-.06.83-.19,1.63-.32,2.42l-.15-.08c-3-4.36-3.3-10.25-.08-14.18A48.77,48.77,0,0,1,197.12,367.9Z"/><path class="cls-1" d="M369.23,398.58a205.23,205.23,0,0,0,47.39-19.68c5.46,10.06,21.45,12.24,31.32,9.17a3.64,3.64,0,0,0,1.58-6c-6-7-14.57-10.36-23.33-8.89a246.9,246.9,0,0,0,22.49-16,2.06,2.06,0,0,0,3.21.32c.43-.42.9-.85,1.37-1.28,5.86,1.63,9.45,6.78,15.32,8.75,6.78,2.27,13.25-1.73,14.45-8.75,1.36-8-4.78-14-12.42-14.63a16.9,16.9,0,0,0-4.06.17c4.14-3.87,8.28-7.94,12.28-12.23,6.28,3.67,16,4.93,22.54,5.38,6.14.42,13.21-2.09,13.88-9.11.58-6.13-4.89-11.87-10.7-12.92-8.25-1.49-14.82,4.82-20,10.32a2.65,2.65,0,0,0-.37.57l-.2,0c10.19-11.76,18.92-24.7,23.69-38,12.29-1.27,28-16.24,16.26-28.1-5.06-5.11-12.84-3.36-16.95,2-4.57,5.93-3.39,13.18-1,19.75a1.69,1.69,0,0,0-.24.19c-7.64,8.73-13.68,18.82-20.52,28.28a25.11,25.11,0,0,0-7.33-15.9,3,3,0,0,0-4.7.61c-5.13,7.86-4.31,20.32,2.58,27.06q-8.41,9.62-17.73,18.42a14.69,14.69,0,0,0,1-4.46c.25-6.09-4.69-12.43-10.94-12.89-7.44-.55-10.95,7.35-8.81,13.63a15.35,15.35,0,0,0,6.49,7.73l1.24.8a48,48,0,0,0-3.6,4.43,2.33,2.33,0,0,0,.65,2.93,236,236,0,0,1-20.63,14.77c.61-6.8-2.79-14.4-9-17.29a3.26,3.26,0,0,0-4.71,1.92A53.64,53.64,0,0,0,407,366.92a34.4,34.4,0,0,0,.63,7.44,307.45,307.45,0,0,1-40.11,18.13C363.8,393.89,365.25,399.65,369.23,398.58ZM513.56,276.21c-1.35-3.48-2.5-7.33-.93-10.64,1.76-3.72,5.88-4.34,7.14-.09C521.31,270.66,517.72,273.74,513.56,276.21ZM490,325.09c3.46-2.72,7.94-5.84,12.13-5.44,1.67.16,5.72,2.14,5.74,4.41,0,4.14-4,3.73-6.45,3.55C497.61,327.34,493.79,326.13,490,325.09ZM476.9,299.72a19.27,19.27,0,0,1,3.21,13.11C477.19,309,475.79,304.55,476.9,299.72Zm-16,51c3-1.59,6.24-2.47,9.5-1.63,6.29,1.62,5.69,10.79-.59,7.42C467.3,355.14,464.11,352.44,460.85,350.67Zm-15.51-21c.34-2.38,2-3,4-2,4.57,2.31,4.06,5.84,2,9.39a13.71,13.71,0,0,1-2.62-1.37C446.84,334.36,445,332.2,445.34,329.71Zm-19,48.45a25.85,25.85,0,0,1,12.47,4,23.11,23.11,0,0,1-7.52-1.34A21.38,21.38,0,0,1,426.29,378.16Zm-11.34-22.09c3.22,3.92,2.9,9.82-.08,14.18l-.15.08c-.13-.79-.26-1.6-.32-2.42A48.74,48.74,0,0,1,414.95,356.06Z"/><text class="cls-2" transform="translate(31.64 515.52)">EasyMix</text><path class="cls-1" d="M97.81,163.29a307.52,307.52,0,0,1,18.73-39.83,34.37,34.37,0,0,0,7.43.74,53.64,53.64,0,0,0,17.39-2.53,3.26,3.26,0,0,0,2-4.68c-2.8-6.21-10.35-9.72-17.15-9.21a236,236,0,0,1,15.07-20.41,2.32,2.32,0,0,0,2.92.69,47.83,47.83,0,0,0,4.49-3.53c.27.44.53.87.78,1.26a15.35,15.35,0,0,0,7.63,6.61c6.25,2.23,14.21-1.15,13.76-8.6-.37-6.26-6.64-11.29-12.73-11.13a14.7,14.7,0,0,0-4.48.92q8.92-9.16,18.68-17.45c6.63,7,19.08,8,27,3a3,3,0,0,0,.68-4.69,25.11,25.11,0,0,0-15.79-7.56c9.56-6.7,19.74-12.59,28.59-20.1a1.69,1.69,0,0,0,.19-.24c6.53,2.46,13.77,3.76,19.76-.73C238.14,21.76,240,14,235,8.88,223.29-3,208.08,12.45,206.63,24.71c-13.41,4.57-26.48,13.12-38.39,23.13l0-.2a2.65,2.65,0,0,0,.58-.36c5.57-5.05,12-11.53,10.62-19.8-1-5.82-6.62-11.38-12.75-10.89-7,.56-9.64,7.59-9.32,13.74.35,6.53,1.46,16.28,5,22.62C158,56.89,153.9,61,150,65A16.9,16.9,0,0,0,150.2,61c-.55-7.65-6.46-13.88-14.44-12.64-7,1.1-11.13,7.5-9,14.31,1.88,5.9,7,9.57,8.52,15.45-.44.46-.88.93-1.3,1.35a2.06,2.06,0,0,0,.27,3.22A246.82,246.82,0,0,0,118,104.94c1.61-8.74-1.63-17.38-8.54-23.46a3.64,3.64,0,0,0-6,1.5c-3.22,9.83-1.28,25.84,8.7,31.45a205.22,205.22,0,0,0-20.39,47.09C90.62,165.49,96.36,167,97.81,163.29ZM227.08,13c4.23,1.33,3.55,5.44-.2,7.14-3.33,1.52-7.16.31-10.63-1.09C218.79,14.9,221.92,11.36,227.08,13ZM164.69,30.44c-.14-2.48-.5-6.49,3.64-6.4,2.27,0,4.19,4.13,4.33,5.8.34,4.19-2.85,8.63-5.62,12C166.05,38.05,164.9,34.22,164.69,30.44Zm14.46,21.49a19.27,19.27,0,0,1,13.06,3.4C187.36,56.38,183,54.91,179.14,51.93Zm-43.78,9.7c-3.28-6.33,5.9-6.79,7.43-.48.79,3.26-.14,6.49-1.77,9.47C139.3,67.34,136.64,64.1,135.36,61.63ZM155.78,83a13.69,13.69,0,0,1-1.33-2.64c3.58-2,7.12-2.47,9.36,2.13,1,2,.33,3.67-2.06,4S157.12,84.88,155.78,83ZM110.42,99.78a23.11,23.11,0,0,1-1.23-7.54A25.85,25.85,0,0,1,113,104.77,21.39,21.39,0,0,1,110.42,99.78Zm12.67,17c-.83-.08-1.63-.21-2.42-.36l.09-.15c4.4-2.92,10.3-3.14,14.18.13A48.77,48.77,0,0,1,123.1,116.82Z"/><path class="cls-1" d="M512.14,163a205.22,205.22,0,0,0-20.39-47.09c10-5.61,11.92-21.63,8.7-31.45a3.64,3.64,0,0,0-6-1.5c-6.91,6.09-10.15,14.72-8.54,23.46a246.82,246.82,0,0,0-16.29-22.25,2.06,2.06,0,0,0,.27-3.22c-.42-.42-.86-.89-1.3-1.35,1.54-5.88,6.64-9.55,8.52-15.45,2.17-6.81-1.93-13.22-9-14.31-8-1.24-13.9,5-14.44,12.64a16.9,16.9,0,0,0,.23,4.06c-3.93-4.08-8.07-8.16-12.41-12.09,3.58-6.34,4.69-16.08,5-22.62.33-6.15-2.29-13.18-9.32-13.74-6.14-.49-11.79,5.07-12.75,10.89-1.37,8.27,5,14.75,10.62,19.8a2.65,2.65,0,0,0,.58.36l0,.2c-11.91-10-25-18.55-38.39-23.13-1.45-12.27-16.66-27.76-28.34-15.84-5,5.14-3.17,12.89,2.22,16.92,6,4.48,13.23,3.19,19.76.73a1.69,1.69,0,0,0,.19.24c8.85,7.51,19,13.4,28.59,20.1a25.11,25.11,0,0,0-15.79,7.56,3,3,0,0,0,.68,4.69c7.93,5,20.38,4,27-3q9.75,8.27,18.68,17.45a14.7,14.7,0,0,0-4.48-.92C439.69,74,433.42,79,433.05,85.28c-.44,7.45,7.52,10.84,13.76,8.6a15.35,15.35,0,0,0,7.63-6.61c.24-.38.51-.81.78-1.26a47.83,47.83,0,0,0,4.49,3.53,2.32,2.32,0,0,0,2.92-.69,236,236,0,0,1,15.07,20.41c-6.81-.51-14.35,3-17.15,9.21a3.26,3.26,0,0,0,2,4.68,53.64,53.64,0,0,0,17.39,2.53,34.37,34.37,0,0,0,7.43-.74,307.52,307.52,0,0,1,18.73,39.83C507.53,168.5,513.27,167,512.14,163ZM387.64,20.51c-3.46,1.4-7.29,2.6-10.63,1.09-3.74-1.7-4.43-5.81-.2-7.14C382,12.85,385.1,16.39,387.64,20.51Zm49.22,22.86c-2.77-3.41-6-7.85-5.62-12,.14-1.67,2.06-5.75,4.33-5.8,4.14-.09,3.78,3.92,3.64,6.4C439,35.7,437.84,39.54,436.86,43.38ZM411.69,56.82a19.27,19.27,0,0,1,13.06-3.4C420.93,56.4,416.53,57.86,411.69,56.82Zm51.18,15.29c-1.63-3-2.56-6.21-1.77-9.47,1.52-6.31,10.71-5.85,7.43.48C467.25,65.59,464.59,68.82,462.87,72.11ZM442.14,87.93c-2.39-.31-3-2-2.06-4,2.24-4.6,5.78-4.15,9.36-2.13a13.69,13.69,0,0,1-1.33,2.64C446.77,86.36,444.64,88.25,442.14,87.93Zm48.73,18.33a25.85,25.85,0,0,1,3.83-12.53,23.11,23.11,0,0,1-1.23,7.54A21.39,21.39,0,0,1,490.87,106.26Zm-21.92,11.67c3.88-3.27,9.78-3,14.18-.13l.09.15c-.79.14-1.59.28-2.42.36A48.77,48.77,0,0,1,468.95,117.93Z"/></g></svg>